<svg xmlns:dc="http://purl.org/dc/elements/1.1/" xmlns:cc="http://creativecommons.org/ns#" xmlns:rdf="http://www.w3.org/1999/02/22-rdf-syntax-ns#" xmlns:svg="http://www.w3.org/2000/svg" xmlns="http://www.w3.org/2000/svg" viewBox="0 0 360 360" fill="none"><metadata><rdf:RDF><cc:Work><dc:format>image/svg+xml</dc:format><dc:type rdf:resource="http://purl.org/dc/dcmitype/StillImage"/><dc:title>Avatar Illustration System</dc:title><dc:creator><cc:Agent><dc:title>Micah Lanier</dc:title></cc:Agent></dc:creator><dc:source>https://www.figma.com/community/file/829741575478342595</dc:source><cc:license rdf:resource="https://creativecommons.org/licenses/by/4.0/"/></cc:Work><cc:License rdf:about="https://creativecommons.org/licenses/by/4.0/"><cc:permits rdf:resource="https://creativecommons.org/ns#Reproduction"/><cc:permits rdf:resource="https://creativecommons.org/ns#Distribution"/><cc:permits rdf:resource="https://creativecommons.org/ns#DerivativeWorks"/><cc:requires rdf:resource="https://creativecommons.org/ns#Notice"/><cc:requires rdf:resource="https://creativecommons.org/ns#Attribution"/></cc:License></rdf:RDF></metadata><mask id="avatarsRadiusMask"><rect width="360" height="360" rx="0" ry="0" x="0" y="0" fill="#fff"/></mask><g mask="url(#avatarsRadiusMask)"><g transform="translate(80 23)"><path d="M154 319.5c-14.4-20-25.667-58.666-27-78L58.5 212 30 319.5h124Z" fill="rgba(249, 201, 182, 1)" stroke="#000" stroke-width="4"/><mask id="baseStandard-a" style="mask-type:alpha" maskUnits="userSpaceOnUse" x="30" y="212" width="124" height="118"><path d="M154 329.5c-14.4-20-25.667-68.666-27-88L58.5 212 30 329.5h124Z" fill="rgba(249, 201, 182, 1)"/></mask><g mask="url(#baseStandard-a)"><ellipse cx="124" cy="210" rx="59" ry="54" fill="#000" style="mix-blend-mode:multiply"/></g><path d="m181.939 151.374.002.009.093.389.144.654c8.851 40.206-16.109 80.258-56.315 89.89-40.205 9.633-80.606-14.759-90.935-54.61l-.19-.733-16.735-69.844-.067-.289C8.512 76.334 33.544 35.757 74.048 26.053c40.504-9.704 81.206 15.123 91.161 55.501l.051.208.02.083.001.005.048.198.047.199.002.004 16.396 68.437.003.009.081.338.081.339Z" fill="rgba(249, 201, 182, 1)" stroke="#000" stroke-width="4"/><g><g transform="translate(34 102.3)"/></g></g><g transform="translate(170 183)"><path d="M-5 41c3.21-7.957 15.107-24.767 37.007-28.348 21.9-3.58 33.12 8.455 35.993 14.92" stroke="rgba(0, 0, 0, 1)" stroke-width="4"/></g><g transform="translate(110 102)"><g stroke="rgba(0, 0, 0, 1)" stroke-width="4" stroke-linecap="round"><path d="M27 26.5c6.167 2.5 21.1 3 31.5-15M94 4c5.167 5.333 18.1 12.8 28.5 0M37.148 26.458 31 21.03M116.219 9.444l1.785-8.005M45.597 22.814l-4.046-7.132M108.142 9.018 109.08.87M52.674 17.2l-2.201-7.9M99.993 8.031l-.776-8.164"/></g></g><g transform="translate(49 11)"><g fill="rgba(119, 49, 29, 1)"><path opacity=".1" d="M187.986 77.176c-8-6.4-21.833-7-27.5-6.5l-8-26.5c13.6 3.2 32 24 35.5 33Z"/><path d="M85.792 11.764S91.53 7.802 115.746 1.7c24.217-6.101 33.046-3.718 33.046-3.718l11.789 72.832s-8.039-.173-28.033 4.194c-19.993 4.366-29.562 9.666-29.562 9.666L85.792 11.764Z"/><path d="M48.986 86.676c-6.8-41.6 23.333-68.167 37-75.5l16.999 73.5c-19.2-39.6-45.333-15.167-54 2Z"/><path opacity=".1" d="M67.486 130.675c-7.2-27.2 22-41.834 35.499-46-7-16.334-23-31-42.5-13-18 30.5-11 54.001-5.5 72l12.5-13Z"/></g></g><g transform="translate(142 119)"><g fill="#000"><path d="M5.287 34.073c.114.813 1.147.994 1.722.408 2.465-2.516 6.255-4.365 10.654-4.887 2.595-.309 5.091-.12 7.316.472.754.2 1.495-.437 1.232-1.17-1.666-4.646-6.366-7.7-11.475-7.093-5.942.706-10.186 6.095-9.48 12.036l.03.234ZM69.385 24.073c.113.813 1.146.994 1.721.409 2.443-2.486 6.192-4.312 10.542-4.829 2.565-.304 5.032-.118 7.232.464.754.2 1.495-.438 1.23-1.171-1.654-4.594-6.306-7.611-11.362-7.01-5.886.699-10.09 6.037-9.39 11.923.008.071.017.143.027.213Z"/></g><g transform="translate(-40 -8)"/></g><g transform="rotate(-8 1149.438 -1186.916)"><path d="M12.307 12.34c5.446-1.24 14.377.62 12.417 10.543-1.743 8.82-11.11 9.303-13.724 6.822" stroke="#000" stroke-width="4"/></g><g transform="translate(84 154)"><path d="M37 8.25V7.13l-.954-.585C32.312 4.254 27.772 3 23.08 3 17.44 3 12.16 4.747 8.398 8.295c-3.804 3.587-5.856 8.832-5.311 15.371.53 6.372 2.67 11.061 6.218 14.177a8.013 8.013 0 0 0-.243 3.21c.39 3.269 2.042 5.624 4.595 7.075C16.091 49.51 19.207 50 22.524 50c5.48 0 10.284-2.947 13.942-6.889l.534-.575V8.249Z" stroke="#000" stroke-width="4"/><path d="M42.972 23.984c.071-.652.108-1.314.108-1.984 0-10.217-9.507-17-20-17s-19 6.5-18 18.5c.556 6.677 2.946 11.072 6.65 13.717-.588 1.024-.845 2.227-.682 3.6.63 5.281 5.138 7.183 11.476 7.183 11.105 0 19.892-14.047 20.448-24.016Z" fill="rgba(249, 201, 182, 1)"/><path d="M27.5 13.5c-4-1.833-12.8-2.8-16 8" stroke="#000" stroke-width="4"/><path d="M17 14c2.167 1.833 6.3 7.5 5.5 15.5" stroke="#000" stroke-width="4"/><g transform="translate(3 42)"><circle cx="25" cy="2" r="4" fill="rgba(0, 0, 0, 1)"/><circle cx="26" cy="1" r="1" fill="#fff"/></g></g><g transform="translate(53 272)"><path d="M260.366 90.863h-272.91l.104-.212C-7.895 81.395.49 64.319 11.403 49.04c6.193-8.67 13.127-16.654 20.539-22.27 7.412-5.615 15.12-8.73 22.95-8.045 15.054 1.317 28.463 9.56 41.925 17.834 1.275.784 2.551 1.569 3.829 2.348 14.485 8.827 29.359 17.023 45.719 13.436 5.534-1.213 9.264-3.81 11.611-7.164 2.314-3.307 3.146-7.15 3.29-10.663.144-3.518-.395-6.843-.955-9.26a39.89 39.89 0 0 0-.747-2.773c3.625-3.649 7.463-5.774 11.425-6.73 4.295-1.038 8.887-.738 13.718.69 9.73 2.879 20.14 10.253 30.3 19.735 18.614 17.373 35.693 41.144 45.359 54.684Z" fill="rgba(252, 144, 159, 1)" stroke="#000" stroke-width="4.274"/></g></g></svg>