<svg xmlns="http://www.w3.org/2000/svg" width="147" height="34" viewBox="0 0 147 34" fill="none">
  <path d="M0.26 26V22.256L7.424 14.12L9.332 12.212L6.488 12.284H0.332V8H16.1V11.744L9.044 19.808L7.064 21.788L10.232 21.716H16.424V26H0.26ZM28.221 7.64C30.117 7.64 31.773 8.012 33.189 8.756C34.629 9.476 35.745 10.544 36.537 11.96C37.353 13.352 37.761 15.032 37.761 17C37.761 18.968 37.353 20.66 36.537 22.076C35.745 23.468 34.629 24.536 33.189 25.28C31.773 26 30.117 26.36 28.221 26.36C26.373 26.36 24.729 26 23.289 25.28C21.849 24.536 20.721 23.468 19.905 22.076C19.113 20.66 18.717 18.968 18.717 17C18.717 15.032 19.113 13.352 19.905 11.96C20.721 10.544 21.849 9.476 23.289 8.756C24.729 8.012 26.373 7.64 28.221 7.64ZM28.221 11.996C27.525 11.996 26.925 12.164 26.421 12.5C25.917 12.836 25.533 13.376 25.269 14.12C25.005 14.864 24.873 15.824 24.873 17C24.873 18.176 25.005 19.136 25.269 19.88C25.533 20.6 25.917 21.14 26.421 21.5C26.925 21.836 27.525 22.004 28.221 22.004C28.941 22.004 29.553 21.836 30.057 21.5C30.561 21.14 30.945 20.6 31.209 19.88C31.473 19.136 31.605 18.176 31.605 17C31.605 15.824 31.473 14.864 31.209 14.12C30.945 13.376 30.561 12.836 30.057 12.5C29.553 12.164 28.941 11.996 28.221 11.996ZM47.2518 0.368V19.88C47.2518 20.672 47.3838 21.236 47.6478 21.572C47.9118 21.908 48.3558 22.076 48.9798 22.076C49.3398 22.076 49.6398 22.052 49.8798 22.004C50.1198 21.956 50.4078 21.884 50.7438 21.788L50.3478 25.46C49.9158 25.724 49.3518 25.94 48.6558 26.108C47.9598 26.276 47.2758 26.36 46.6038 26.36C44.6838 26.36 43.2918 25.916 42.4278 25.028C41.5638 24.14 41.1318 22.688 41.1318 20.672V0.368H47.2518ZM59.0652 26.36C57.8412 26.36 56.7612 26.156 55.8252 25.748C54.9132 25.316 54.1932 24.632 53.6652 23.696C53.1372 22.76 52.8732 21.536 52.8732 20.024V8H58.9932V18.584C58.9932 19.736 59.2212 20.54 59.6772 20.996C60.1332 21.452 60.7812 21.68 61.6212 21.68C62.0532 21.68 62.4612 21.608 62.8452 21.464C63.2292 21.296 63.5652 21.056 63.8532 20.744C64.1412 20.408 64.3572 19.988 64.5012 19.484C64.6692 18.956 64.7532 18.344 64.7532 17.648V8H70.8732V26H65.4012L65.2212 22.616C64.6452 23.888 63.8412 24.836 62.8092 25.46C61.7772 26.06 60.5292 26.36 59.0652 26.36ZM86.1335 33.56V8H91.6415L91.9655 14.516L91.2455 13.76C91.4135 12.56 91.7855 11.504 92.3615 10.592C92.9375 9.68 93.6815 8.96 94.5935 8.432C95.5055 7.904 96.5495 7.64 97.7255 7.64C99.2135 7.64 100.51 8.012 101.614 8.756C102.718 9.476 103.57 10.532 104.17 11.924C104.794 13.292 105.105 14.96 105.105 16.928C105.105 18.896 104.794 20.588 104.17 22.004C103.546 23.42 102.67 24.5 101.542 25.244C100.438 25.988 99.1415 26.36 97.6535 26.36C96.0215 26.36 94.7015 25.88 93.6935 24.92C92.6855 23.936 92.0135 22.7 91.6775 21.212L92.2535 20.348V33.56H86.1335ZM95.5655 21.86C96.6215 21.86 97.4495 21.476 98.0495 20.708C98.6495 19.916 98.9495 18.68 98.9495 17C98.9495 15.32 98.6495 14.096 98.0495 13.328C97.4735 12.536 96.6575 12.14 95.6015 12.14C94.9295 12.14 94.3415 12.332 93.8375 12.716C93.3335 13.076 92.9375 13.616 92.6495 14.336C92.3855 15.056 92.2535 15.944 92.2535 17C92.2535 18.008 92.3735 18.884 92.6135 19.628C92.8775 20.348 93.2615 20.9 93.7655 21.284C94.2695 21.668 94.8695 21.86 95.5655 21.86ZM117.272 7.64C119.168 7.64 120.824 8.012 122.24 8.756C123.68 9.476 124.796 10.544 125.588 11.96C126.404 13.352 126.812 15.032 126.812 17C126.812 18.968 126.404 20.66 125.588 22.076C124.796 23.468 123.68 24.536 122.24 25.28C120.824 26 119.168 26.36 117.272 26.36C115.424 26.36 113.78 26 112.34 25.28C110.9 24.536 109.772 23.468 108.956 22.076C108.164 20.66 107.768 18.968 107.768 17C107.768 15.032 108.164 13.352 108.956 11.96C109.772 10.544 110.9 9.476 112.34 8.756C113.78 8.012 115.424 7.64 117.272 7.64ZM117.272 11.996C116.576 11.996 115.976 12.164 115.472 12.5C114.968 12.836 114.584 13.376 114.32 14.12C114.056 14.864 113.924 15.824 113.924 17C113.924 18.176 114.056 19.136 114.32 19.88C114.584 20.6 114.968 21.14 115.472 21.5C115.976 21.836 116.576 22.004 117.272 22.004C117.992 22.004 118.604 21.836 119.108 21.5C119.612 21.14 119.996 20.6 120.26 19.88C120.524 19.136 120.656 18.176 120.656 17C120.656 15.824 120.524 14.864 120.26 14.12C119.996 13.376 119.612 12.836 119.108 12.5C118.604 12.164 117.992 11.996 117.272 11.996ZM137.815 26.36C136.015 26.36 134.335 26.072 132.775 25.496C131.239 24.896 129.967 24.044 128.959 22.94L131.839 19.556C132.439 20.324 133.231 20.972 134.215 21.5C135.223 22.004 136.339 22.256 137.563 22.256C138.307 22.256 138.919 22.148 139.399 21.932C139.879 21.716 140.119 21.38 140.119 20.924C140.119 20.588 139.999 20.324 139.759 20.132C139.519 19.916 139.039 19.736 138.319 19.592L135.799 19.088C133.543 18.632 131.935 17.96 130.975 17.072C130.039 16.16 129.571 14.972 129.571 13.508C129.571 12.524 129.871 11.588 130.471 10.7C131.071 9.788 131.995 9.056 133.243 8.504C134.491 7.928 136.087 7.64 138.031 7.64C139.855 7.64 141.463 7.904 142.855 8.432C144.247 8.96 145.351 9.728 146.167 10.736L143.251 14.048C142.675 13.328 141.931 12.764 141.019 12.356C140.107 11.948 139.195 11.744 138.283 11.744C137.707 11.744 137.215 11.804 136.807 11.924C136.423 12.02 136.135 12.164 135.943 12.356C135.751 12.548 135.655 12.788 135.655 13.076C135.655 13.388 135.799 13.664 136.087 13.904C136.399 14.12 136.963 14.312 137.779 14.48L141.055 15.128C142.903 15.464 144.235 16.076 145.051 16.964C145.867 17.852 146.275 18.92 146.275 20.168C146.275 21.344 145.963 22.4 145.339 23.336C144.715 24.272 143.779 25.016 142.531 25.568C141.283 26.096 139.711 26.36 137.815 26.36Z" fill="black" />
  <path d="M78.5102 7.64C79.6382 7.64 80.5142 7.928 81.1382 8.504C81.7862 9.08 82.1102 9.884 82.1102 10.916C82.1102 11.924 81.7862 12.716 81.1382 13.292C80.5142 13.868 79.6382 14.156 78.5102 14.156C77.4062 14.156 76.5302 13.868 75.8822 13.292C75.2342 12.716 74.9102 11.924 74.9102 10.916C74.9102 9.884 75.2342 9.08 75.8822 8.504C76.5302 7.928 77.4062 7.64 78.5102 7.64ZM78.5102 19.808C79.6382 19.808 80.5142 20.096 81.1382 20.672C81.7862 21.248 82.1102 22.052 82.1102 23.084C82.1102 24.092 81.7862 24.884 81.1382 25.46C80.5142 26.036 79.6382 26.324 78.5102 26.324C77.4062 26.324 76.5302 26.036 75.8822 25.46C75.2342 24.884 74.9102 24.092 74.9102 23.084C74.9102 22.052 75.2342 21.248 75.8822 20.672C76.5302 20.096 77.4062 19.808 78.5102 19.808Z" fill="#F71735" />
</svg>